# xmcd
#
# Track frame offsets:
#	150
#	12672
#	27262
#	39155
#	55180
#	74715
#	88487
#	103642
#	114232
#	130605
#	144147
#	156322
#	169972
#	183127
#	194367
#	216177
#	233622
#	244712
#	258805
#	274780
#
# Disc length: 3859 seconds
#
# Revision: 2
# Processed by: cddbd v1.5.2PL0 Copyright (c) Steve Scherf et al.
# Submitted via: EasyCDDAExtractor 15.3.0.1
#
DISCID=140f1114
DTITLE=Various Artist - The Best Of Country No. 1's
DYEAR=1991
DGENRE=Country
TTITLE0=Charlie Rich - The Most Beautiful Girl In The World
TTITLE1=Jeannie C. Riley - Harper Valley P.T.A. 
TTITLE2=Johnny Cash - Ring Of Fire
TTITLE3=Billie Jo Spears - Blanket On The Ground
TTITLE4=Kenny Rogers - Coward Of The County
TTITLE5=Glen Campbell - Wichita Lineman
TTITLE6=Jessi Colter - I'm Not Lisa
TTITLE7=Willie Nelson - Blue Eyes Crying In The Rain
TTITLE8=Kenny Rogers - Lucille
TTITLE9=Faron Young - It's Four In The Morning
TTITLE10=Tammy Wynette - Stand By Your Man
TTITLE11=Jimmy Dean - Big Bad John
TTITLE12=Marty Robbins - Devil Woman
TTITLE13=Roger Miller - King Of The Road
TTITLE14=Willie Nelson and Merle Haggard - Poncho and Lefty
TTITLE15=Ricky Skaggs - Country Boy
TTITLE16=Tanya Tucker - Would You Lay Down With Me (In A Field Of Stone)
TTITLE17=Dolly Parton - I Will Always Love You
TTITLE18=The Judds - Maybe Your Baby's Got The Blues
TTITLE19=The Statler Bros. - Only My Love
EXTD=
EXTT0=
EXTT1=
EXTT2=
EXTT3=
EXTT4=
EXTT5=
EXTT6=
EXTT7=
EXTT8=
EXTT9=
EXTT10=
EXTT11=
EXTT12=
EXTT13=
EXTT14=
EXTT15=
EXTT16=
EXTT17=
EXTT18=
EXTT19=
PLAYORDER=
